<svg xmlns="http://www.w3.org/2000/svg" xmlns:xlink="http://www.w3.org/1999/xlink" version="1.1" id="Capa_1" x="0px" y="0px" viewBox="0 0 511.112 511.112" style="enable-background:new 0 0 511.112 511.112;" xml:space="preserve">
<g>
	<path d="M411.74,151.539c-10.781-3.205-22.146-6.411-34.384-8.742l81.88-115.098c5.536-7.867,3.788-18.649-4.079-24.477   c-7.867-5.536-18.649-3.788-24.477,4.079l-92.079,128.793c-25.934-3.205-53.615-4.954-82.171-4.954   c-28.847,0-56.821,1.748-82.754,4.954L79.849,7.302C74.021-0.565,63.24-2.314,55.372,3.514c-7.867,5.828-9.616,16.609-3.788,24.477   l83.92,114.807c-11.947,2.622-23.311,5.536-33.51,8.742c-61.774,19.232-74.595,45.165-74.595,63.523c0,0.583,0,1.166,0,2.04   c-1.457,2.622-2.331,5.536-2.331,8.742v201.349c0,18.357,12.821,44.291,74.013,63.523c41.668,13.112,96.449,20.397,154.727,20.397   s113.35-6.993,154.727-20.106c61.191-19.232,74.012-45.165,74.012-63.523V231.38c2.622-5.828,3.497-11.364,3.497-16.318   C486.044,196.704,473.223,170.771,411.74,151.539z M158.232,173.976l33.801,46.331c3.497,4.662,8.742,7.285,14.278,7.285   c3.497,0,7.285-1.166,10.199-3.497c7.867-5.828,9.616-16.609,3.788-24.477l-22.437-30.887c18.066-1.748,37.589-2.622,59.152-2.622   c21.271,0,41.086,0.874,58.86,2.622l-25.059,35.258c-5.536,7.867-3.788,18.649,4.079,24.477c3.205,2.331,6.702,3.205,10.199,3.205   c5.536,0,10.781-2.622,14.278-7.285l35.841-50.41c53.033,9.033,84.211,24.477,93.535,34.967c-0.583,1.748-0.874,3.205-0.874,4.954   v7.576c-15.152,16.318-79.549,41.96-190.859,41.96c-128.211,0-194.356-34.092-194.356-48.662   C62.366,204.863,94.71,185.049,158.232,173.976z M253.808,476.145c-127.919,0-193.773-34.384-193.773-48.953V260.518   c10.49,6.411,24.185,12.238,41.668,17.775c41.668,13.112,96.741,20.106,155.018,20.106s113.35-7.285,155.018-20.106   c14.569-4.662,26.225-9.324,35.841-14.569v163.76C447.581,442.344,381.727,476.145,253.808,476.145z" fill="#ff914d"/>
</g>
<g>
</g>
<g>
</g>
<g>
</g>
<g>
</g>
<g>
</g>
<g>
</g>
<g>
</g>
<g>
</g>
<g>
</g>
<g>
</g>
<g>
</g>
<g>
</g>
<g>
</g>
<g>
</g>
<g>
</g>
</svg>